<mxfile host="app.diagrams.net" modified="2022-05-20T11:10:21.999Z" agent="5.0 (Windows NT 10.0; Win64; x64) AppleWebKit/537.36 (KHTML, like Gecko) Chrome/101.0.4951.67 Safari/537.36" etag="mroZj_tfri6fdTKvYKJD" version="18.0.8" type="github">
  <diagram id="C5RBs43oDa-KdzZeNtuy" name="Page-1">
    <mxGraphModel dx="1038" dy="539" grid="1" gridSize="10" guides="1" tooltips="1" connect="1" arrows="1" fold="1" page="1" pageScale="1" pageWidth="827" pageHeight="1169" math="0" shadow="0">
      <root>
        <mxCell id="WIyWlLk6GJQsqaUBKTNV-0" />
        <mxCell id="WIyWlLk6GJQsqaUBKTNV-1" parent="WIyWlLk6GJQsqaUBKTNV-0" />
        <mxCell id="eZHEUKHzVhSKNnYSl3Gy-15" style="edgeStyle=orthogonalEdgeStyle;rounded=0;orthogonalLoop=1;jettySize=auto;html=1;exitX=0.5;exitY=1;exitDx=0;exitDy=0;entryX=0.5;entryY=0;entryDx=0;entryDy=0;" edge="1" parent="WIyWlLk6GJQsqaUBKTNV-1" source="WIyWlLk6GJQsqaUBKTNV-3" target="eZHEUKHzVhSKNnYSl3Gy-0">
          <mxGeometry relative="1" as="geometry" />
        </mxCell>
        <mxCell id="WIyWlLk6GJQsqaUBKTNV-3" value="Start" style="rounded=1;whiteSpace=wrap;html=1;fontSize=12;glass=0;strokeWidth=1;shadow=0;fillColor=#fff2cc;strokeColor=#d6b656;" parent="WIyWlLk6GJQsqaUBKTNV-1" vertex="1">
          <mxGeometry x="135" y="120" width="120" height="40" as="geometry" />
        </mxCell>
        <mxCell id="eZHEUKHzVhSKNnYSl3Gy-16" style="edgeStyle=orthogonalEdgeStyle;rounded=0;orthogonalLoop=1;jettySize=auto;html=1;exitX=0.5;exitY=1;exitDx=0;exitDy=0;" edge="1" parent="WIyWlLk6GJQsqaUBKTNV-1" source="eZHEUKHzVhSKNnYSl3Gy-0" target="eZHEUKHzVhSKNnYSl3Gy-2">
          <mxGeometry relative="1" as="geometry" />
        </mxCell>
        <mxCell id="eZHEUKHzVhSKNnYSl3Gy-0" value="User selects dog" style="shape=parallelogram;perimeter=parallelogramPerimeter;whiteSpace=wrap;html=1;fixedSize=1;fillColor=#d5e8d4;strokeColor=#82b366;" vertex="1" parent="WIyWlLk6GJQsqaUBKTNV-1">
          <mxGeometry x="125" y="190" width="130" height="50" as="geometry" />
        </mxCell>
        <mxCell id="eZHEUKHzVhSKNnYSl3Gy-17" style="edgeStyle=orthogonalEdgeStyle;rounded=0;orthogonalLoop=1;jettySize=auto;html=1;exitX=0.5;exitY=1;exitDx=0;exitDy=0;" edge="1" parent="WIyWlLk6GJQsqaUBKTNV-1" source="eZHEUKHzVhSKNnYSl3Gy-2" target="eZHEUKHzVhSKNnYSl3Gy-3">
          <mxGeometry relative="1" as="geometry" />
        </mxCell>
        <mxCell id="eZHEUKHzVhSKNnYSl3Gy-2" value="Request image from Dog API" style="ellipse;whiteSpace=wrap;html=1;fillColor=#e1d5e7;strokeColor=#9673a6;" vertex="1" parent="WIyWlLk6GJQsqaUBKTNV-1">
          <mxGeometry x="123.75" y="300" width="132.5" height="60" as="geometry" />
        </mxCell>
        <mxCell id="eZHEUKHzVhSKNnYSl3Gy-20" style="edgeStyle=orthogonalEdgeStyle;rounded=0;orthogonalLoop=1;jettySize=auto;html=1;exitX=0.5;exitY=1;exitDx=0;exitDy=0;" edge="1" parent="WIyWlLk6GJQsqaUBKTNV-1" source="eZHEUKHzVhSKNnYSl3Gy-3" target="eZHEUKHzVhSKNnYSl3Gy-6">
          <mxGeometry relative="1" as="geometry" />
        </mxCell>
        <mxCell id="eZHEUKHzVhSKNnYSl3Gy-26" style="edgeStyle=orthogonalEdgeStyle;rounded=0;orthogonalLoop=1;jettySize=auto;html=1;exitX=1;exitY=0.5;exitDx=0;exitDy=0;entryX=0;entryY=0.5;entryDx=0;entryDy=0;" edge="1" parent="WIyWlLk6GJQsqaUBKTNV-1" source="eZHEUKHzVhSKNnYSl3Gy-3" target="eZHEUKHzVhSKNnYSl3Gy-4">
          <mxGeometry relative="1" as="geometry" />
        </mxCell>
        <mxCell id="eZHEUKHzVhSKNnYSl3Gy-3" value="Okay?&lt;br&gt;" style="rhombus;whiteSpace=wrap;html=1;fillColor=#dae8fc;strokeColor=#6c8ebf;" vertex="1" parent="WIyWlLk6GJQsqaUBKTNV-1">
          <mxGeometry x="150" y="400" width="80" height="80" as="geometry" />
        </mxCell>
        <mxCell id="eZHEUKHzVhSKNnYSl3Gy-27" style="edgeStyle=orthogonalEdgeStyle;rounded=0;orthogonalLoop=1;jettySize=auto;html=1;exitX=0.5;exitY=1;exitDx=0;exitDy=0;entryX=0.5;entryY=0;entryDx=0;entryDy=0;" edge="1" parent="WIyWlLk6GJQsqaUBKTNV-1" source="eZHEUKHzVhSKNnYSl3Gy-4" target="eZHEUKHzVhSKNnYSl3Gy-5">
          <mxGeometry relative="1" as="geometry" />
        </mxCell>
        <mxCell id="eZHEUKHzVhSKNnYSl3Gy-4" value="Display Error" style="rounded=1;whiteSpace=wrap;html=1;fillColor=#fff2cc;strokeColor=#d6b656;" vertex="1" parent="WIyWlLk6GJQsqaUBKTNV-1">
          <mxGeometry x="340" y="420" width="120" height="40" as="geometry" />
        </mxCell>
        <mxCell id="eZHEUKHzVhSKNnYSl3Gy-5" value="Reload dog list" style="rounded=1;whiteSpace=wrap;html=1;fillColor=#fff2cc;strokeColor=#d6b656;" vertex="1" parent="WIyWlLk6GJQsqaUBKTNV-1">
          <mxGeometry x="330" y="500" width="140" height="40" as="geometry" />
        </mxCell>
        <mxCell id="eZHEUKHzVhSKNnYSl3Gy-24" style="edgeStyle=orthogonalEdgeStyle;rounded=0;orthogonalLoop=1;jettySize=auto;html=1;exitX=0.5;exitY=1;exitDx=0;exitDy=0;entryX=0.5;entryY=0;entryDx=0;entryDy=0;" edge="1" parent="WIyWlLk6GJQsqaUBKTNV-1" source="eZHEUKHzVhSKNnYSl3Gy-6" target="eZHEUKHzVhSKNnYSl3Gy-7">
          <mxGeometry relative="1" as="geometry" />
        </mxCell>
        <mxCell id="eZHEUKHzVhSKNnYSl3Gy-6" value="Dog Image" style="shape=parallelogram;perimeter=parallelogramPerimeter;whiteSpace=wrap;html=1;fixedSize=1;fillColor=#d5e8d4;strokeColor=#82b366;" vertex="1" parent="WIyWlLk6GJQsqaUBKTNV-1">
          <mxGeometry x="122.5" y="510" width="135" height="50" as="geometry" />
        </mxCell>
        <mxCell id="eZHEUKHzVhSKNnYSl3Gy-25" style="edgeStyle=orthogonalEdgeStyle;rounded=0;orthogonalLoop=1;jettySize=auto;html=1;exitX=0.5;exitY=1;exitDx=0;exitDy=0;entryX=0.5;entryY=0;entryDx=0;entryDy=0;" edge="1" parent="WIyWlLk6GJQsqaUBKTNV-1" source="eZHEUKHzVhSKNnYSl3Gy-7" target="eZHEUKHzVhSKNnYSl3Gy-9">
          <mxGeometry relative="1" as="geometry" />
        </mxCell>
        <mxCell id="eZHEUKHzVhSKNnYSl3Gy-7" value="Display Image" style="ellipse;whiteSpace=wrap;html=1;fillColor=#e1d5e7;strokeColor=#9673a6;" vertex="1" parent="WIyWlLk6GJQsqaUBKTNV-1">
          <mxGeometry x="122.5" y="590" width="127.5" height="60" as="geometry" />
        </mxCell>
        <mxCell id="eZHEUKHzVhSKNnYSl3Gy-9" value="Complete" style="rounded=1;whiteSpace=wrap;html=1;" vertex="1" parent="WIyWlLk6GJQsqaUBKTNV-1">
          <mxGeometry x="115" y="680" width="135" height="50" as="geometry" />
        </mxCell>
        <mxCell id="eZHEUKHzVhSKNnYSl3Gy-28" value="START" style="rounded=1;whiteSpace=wrap;html=1;fillColor=#fff2cc;strokeColor=#d6b656;" vertex="1" parent="WIyWlLk6GJQsqaUBKTNV-1">
          <mxGeometry x="625" y="80" width="150" height="40" as="geometry" />
        </mxCell>
        <mxCell id="eZHEUKHzVhSKNnYSl3Gy-29" value="DATA" style="shape=parallelogram;perimeter=parallelogramPerimeter;whiteSpace=wrap;html=1;fixedSize=1;fillColor=#d5e8d4;strokeColor=#82b366;" vertex="1" parent="WIyWlLk6GJQsqaUBKTNV-1">
          <mxGeometry x="630" y="160" width="145" height="40" as="geometry" />
        </mxCell>
        <mxCell id="eZHEUKHzVhSKNnYSl3Gy-30" value="PROCESS" style="ellipse;whiteSpace=wrap;html=1;fillColor=#e1d5e7;strokeColor=#9673a6;" vertex="1" parent="WIyWlLk6GJQsqaUBKTNV-1">
          <mxGeometry x="640" y="230" width="152.5" height="60" as="geometry" />
        </mxCell>
        <mxCell id="eZHEUKHzVhSKNnYSl3Gy-31" value="DECISION" style="rhombus;whiteSpace=wrap;html=1;fillColor=#dae8fc;strokeColor=#6c8ebf;" vertex="1" parent="WIyWlLk6GJQsqaUBKTNV-1">
          <mxGeometry x="650" y="330" width="113.75" height="110" as="geometry" />
        </mxCell>
      </root>
    </mxGraphModel>
  </diagram>
</mxfile>
